<?xml version="1.0" encoding="utf-8"?>
<!-- Generator: Adobe Illustrator 23.0.0, SVG Export Plug-In . SVG Version: 6.00 Build 0)  -->
<svg version="1.0" id="picture" xmlns="http://www.w3.org/2000/svg" xmlns:xlink="http://www.w3.org/1999/xlink" x="0px" y="0px"
	 viewBox="0 0 2048 1024" enable-background="new 0 0 2048 1024" xml:space="preserve">
<path id="bg" fill="#E0E0E0" d="M2048,1024H0V0h2048V1024z"/>
<g id="primary">
	<title>Layer 1</title>
	<g id="svg_2">
		<path id="svg_3" fill="#FFFFFF" d="M897.5,448.8c0,17.5,14.2,31.6,31.6,31.6c17.5,0,31.6-14.2,31.6-31.6s-14.2-31.6-31.6-31.6
			C911.7,417.1,897.5,431.3,897.5,448.8z"/>
		<path id="svg_4" fill="#FFFFFF" d="M1187.4,701.7H860.6c-32,0-58-26-58-58V380.2c0-32,26-58,58-58h326.8c32,0,58,26,58,58v263.5
			C1245.3,675.7,1219.3,701.7,1187.4,701.7z M860.6,353.9c-14.5,0-26.3,11.8-26.3,26.3v263.5c0,14.5,11.8,26.3,26.3,26.3h326.8
			c14.5,0,26.3-11.8,26.3-26.3V380.2c0-14.5-11.8-26.3-26.3-26.3L860.6,353.9L860.6,353.9z"/>
		<path id="svg_5" fill="#FFFFFF" d="M881.7,639c-1.5,0-3.1-0.2-4.7-0.7c-8.3-2.6-13-11.4-10.4-19.8c1.2-3.8,29.7-92.3,90.5-90.7
			c17.3,0.4,31.8,4.8,45.8,9c18,5.4,33.5,10.1,54.2,6.8c10.1-1.6,14.3-11.8,21.4-34.6c9.4-30.1,23.6-75.5,86.3-75.5
			c8.7,0,15.8,7.1,15.8,15.8s-7.1,15.8-15.8,15.8c-37.5,0-45.8,20.3-56.1,53.3c-7.2,22.9-16.1,51.5-46.6,56.3
			c-27.8,4.4-49.3-2-68.3-7.7c-12.6-3.8-24.4-7.4-37.5-7.7c-0.2,0-0.5,0-0.7,0c-30.6,0-52.8,49.3-58.8,68.5
			C894.7,634.6,888.4,639,881.7,639L881.7,639z"/>
	</g>
</g>
</svg>
