<?xml version="1.0" encoding="utf-8"?>
<!-- Generator: Adobe Illustrator 23.0.0, SVG Export Plug-In . SVG Version: 6.00 Build 0)  -->
<svg version="1.0" id="picture" xmlns="http://www.w3.org/2000/svg" xmlns:xlink="http://www.w3.org/1999/xlink" x="0px" y="0px"
	 viewBox="0 0 1024 1024" enable-background="new 0 0 1024 1024" xml:space="preserve">
<path id="bg" fill="#E0E0E0" d="M1024,1024H0V0h1024V1024z"/>
<path id="primary" fill="#FFFFFF" d="M677.7,429.2c0-92-73.6-165.7-165.7-165.7s-165.7,73.6-165.7,165.7c0,62.6,33.1,116,84.7,143.6
	c-69.9,27.6-123.3,88.3-138,165.7c-1.8,9.2,3.7,20.2,14.7,22.1h3.7c9.2,0,16.6-5.5,18.4-14.7c16.6-86.5,92-149.1,180.4-150.9h3.7
	C604.1,594.8,677.7,521.2,677.7,429.2L677.7,429.2z M383.2,429.2c0-71.8,57.1-128.8,128.8-128.8s128.8,57.1,128.8,128.8
	c0,69.9-57.1,127-127,128.8h-5.5C438.4,556.2,383.2,499.1,383.2,429.2L383.2,429.2z M633.5,596.7c-9.2-5.5-20.2-3.7-25.8,5.5
	s-3.7,20.2,5.5,25.8c42.3,29.4,71.8,69.9,81,117.8c1.8,9.2,9.2,14.7,18.4,14.7h3.7c9.2-1.8,16.6-11,14.7-22.1
	C720,681.3,685.1,631.6,633.5,596.7L633.5,596.7z"/>
</svg>
